<svg height="48" viewBox="0 0 48 48" width="48" xmlns="http://www.w3.org/2000/svg"><path clip-rule="evenodd" d="M43 41H5c-2.21 0-4-1.79-4-4V11c0-2.21 1.79-4 4-4h38c2.21 0 4 1.79 4 4v26c0 2.21-1.79 4-4 4zm2-30c0-1.104-.896-2-2-2H5c-1.104 0-2 .896-2 2v26c0 1.104.896 2 2 2h38c1.104 0 2-.896 2-2V11zm-3.666 23.715L35 28.38 31.38 32l3.335 3.334c.38.38.38 1 0 1.38-.382.382-1 .382-1.38 0L19 22.382 6.666 34.716c-.38.38-1 .38-1.38 0-.382-.382-.382-1 0-1.38L18.19 20.428c.032-.05.053-.102.095-.145.197-.197.457-.287.715-.28.258-.007.518.083.715.28.042.043.062.096.095.144L30 30.62l4.19-4.19c.033-.048.053-.102.095-.145.197-.196.457-.287.715-.28.258-.007.518.084.715.28.042.043.062.097.095.144l6.905 6.904c.38.38.38 1 0 1.38-.382.382-1 .382-1.38 0zM29 19c-2.21 0-4-1.79-4-4s1.79-4 4-4 4 1.79 4 4-1.79 4-4 4zm0-6c-1.104 0-2 .896-2 2s.896 2 2 2 2-.896 2-2-.896-2-2-2z" fill-rule="evenodd"/></svg>